<svg viewBox="0 0 595 94" xmlns="http://www.w3.org/2000/svg" fill-rule="evenodd" clip-rule="evenodd" stroke-linejoin="round" stroke-miterlimit="2"><g transform="scale(1 .98001)"><path fill="none" d="M0 0h595v95.101H0z"/><clipPath id="a"><path d="M0 0h595v95.101H0z"/></clipPath><g clip-path="url(#a)"><g fill="#186bb5"><path d="M178.5 83.877h22.2l-26.8-70.714h-21.3l-26.8 70.714H148l3.7-11.939h23l3.8 11.939zM157 55.102l6.3-20.204 6.3 20.204H157z" fill-rule="nonzero"/><path d="M209.3 12.755h21.8v71.122h-21.8z"/><path d="M269.2 30.918h12.3c11.2 0 12.2 18.061-.2 18.061h-12.1V30.92zm-21.1 52.959h21.2V66.53h11.6c37 0 36.8-53.57-.4-53.57h-32.3l-.1 70.917z" fill-rule="nonzero"/><path d="M356.2 12.96v26.53h-18.4V12.96h-20.1v70.917h20.1v-27.96h18.4v27.96h20.1V12.959h-20.1zM386 49.387c0-20.612 16.4-37.346 36.6-37.346 20.2 0 36.6 16.734 36.6 37.346 0 20.612-16.4 37.347-36.6 37.347-20.2 0-36.6-16.633-36.6-37.347zm36.5 17.96c9.7 0 17.6-8.062 17.6-17.96 0-9.898-7.9-17.959-17.6-17.959-9.7 0-17.6 8.061-17.6 17.96.1 9.897 8 17.958 17.6 17.958zM469.8 13.673h19.8l19.1 32.755V13.673h20.8v70.204h-18.9l-20.2-34.898v34.898h-20.6V13.673zM545.7 13.47h48.9V28.57h-27.7v12.755h23v12.245h-23v15H595v15.306h-49.3V13.469z" fill-rule="nonzero"/></g><path d="M106.1 53.469c.2 3.367-9.1 40.714-53 41.632C13.7 95.407-.3 61.836 0 53.673v-.204h35.4c4.3-.102 5.3-3.878 5.3-3.878l12.5-28.877v19.388h11.6V15H43.1L31.3 41.632H.1C0 38.265 9.2.918 53.1 0c39.4-.306 53.4 33.265 53.1 41.428H71.4c-2.7.306-4.2 1.123-5.7 4.694L53.2 73.877V54.795H41.5v25h21.7l12.1-26.53H106l.1.204z" fill="#186bb5" fill-rule="nonzero"/></g></g></svg>