<svg width="1000" height="1000" viewBox="0 0 1000 1000" fill="none" xmlns="http://www.w3.org/2000/svg">
<rect width="1000" height="1000" fill="black"/>
<path d="M163.304 569.36C187.155 569.36 199.208 569.445 199.464 569.616C199.677 569.787 199.784 574.736 199.784 584.464L193.448 584.528C193.448 578.512 193.363 575.44 193.192 575.312C192.979 575.184 182.952 575.12 163.112 575.12C143.272 575.12 133.245 575.184 133.032 575.312C132.819 575.44 132.712 581.563 132.712 593.68C132.712 605.797 132.819 611.92 133.032 612.048C133.245 612.176 143.272 612.24 163.112 612.24C182.952 612.24 192.979 612.176 193.192 612.048C193.363 611.92 193.448 608.848 193.448 602.832L199.784 602.896C199.784 612.624 199.677 617.573 199.464 617.744C199.208 617.915 187.091 618 163.112 618C139.133 618 127.016 617.915 126.76 617.744C126.504 617.573 126.376 609.552 126.376 593.68C126.376 577.808 126.504 569.787 126.76 569.616C127.016 569.445 139.069 569.36 162.92 569.36H163.304ZM232.268 582.992C248.737 582.992 257.057 583.056 257.228 583.184C257.398 583.312 257.484 589.072 257.484 600.464C257.484 611.899 257.398 617.68 257.228 617.808C257.057 617.936 248.737 618 232.268 618C215.798 618 207.478 617.936 207.308 617.808C207.137 617.68 207.052 611.899 207.052 600.464C207.052 589.072 207.137 583.312 207.308 583.184C207.478 583.056 215.798 582.992 232.268 582.992ZM232.268 588.752C219.937 588.752 213.708 588.795 213.58 588.88C213.452 588.965 213.388 592.827 213.388 600.464C213.388 608.144 213.452 612.027 213.58 612.112C213.708 612.197 219.937 612.24 232.268 612.24C244.598 612.24 250.828 612.197 250.956 612.112C251.084 612.027 251.148 608.144 251.148 600.464C251.148 592.827 251.084 588.965 250.956 588.88C250.828 588.795 244.598 588.752 232.268 588.752ZM275.879 582.992V583.056C278.652 583.013 284.092 582.992 292.199 582.992L307.943 583.056C310.29 583.013 316.22 582.992 325.735 582.992C336.999 582.992 342.695 583.035 342.823 583.12C342.951 583.205 343.015 588.005 343.015 597.52V618H336.679V597.52C336.679 591.76 336.636 588.859 336.551 588.816C336.466 588.773 332.86 588.752 325.735 588.752C315.111 588.752 309.735 588.773 309.607 588.816C309.479 588.859 309.415 591.76 309.415 597.52V618H303.079V592.016C303.079 589.883 303.058 588.816 303.015 588.816C302.93 588.773 299.324 588.752 292.199 588.752C281.532 588.752 276.135 588.773 276.007 588.816C275.922 588.859 275.879 590.288 275.879 593.104V618H269.543V582.992H275.879ZM363.129 582.992V583.056C365.902 583.013 371.342 582.992 379.449 582.992L395.193 583.056C397.54 583.013 403.47 582.992 412.985 582.992C424.249 582.992 429.945 583.035 430.073 583.12C430.201 583.205 430.265 588.005 430.265 597.52V618H423.929V597.52C423.929 591.76 423.886 588.859 423.801 588.816C423.716 588.773 420.11 588.752 412.985 588.752C402.361 588.752 396.985 588.773 396.857 588.816C396.729 588.859 396.665 591.76 396.665 597.52V618H390.329V592.016C390.329 589.883 390.308 588.816 390.265 588.816C390.18 588.773 386.574 588.752 379.449 588.752C368.782 588.752 363.385 588.773 363.257 588.816C363.172 588.859 363.129 590.288 363.129 593.104V618H356.793V582.992H363.129ZM480.587 618V617.936C477.942 617.979 472.822 618 465.227 618C451.019 618 443.851 617.957 443.723 617.872C443.595 617.787 443.531 612.987 443.531 603.472V582.992H449.867V603.472C449.867 609.232 449.91 612.133 449.995 612.176C450.08 612.219 455.158 612.24 465.227 612.24C475.254 612.24 480.31 612.219 480.395 612.176C480.523 612.091 480.587 609.189 480.587 603.472V582.992H486.923V618H480.587ZM507.504 582.992V583.056C510.491 583.013 516.635 582.992 525.936 582.992C538.096 582.992 544.24 583.035 544.368 583.12C544.496 583.205 544.56 588.005 544.56 597.52V618H538.224V597.52C538.224 591.76 538.181 588.859 538.096 588.816C538.011 588.773 533.957 588.752 525.936 588.752C513.904 588.752 507.824 588.773 507.696 588.816C507.568 588.859 507.504 591.76 507.504 597.52V618H501.168V582.992H507.504ZM566.485 567.056C566.528 567.099 566.549 568.4 566.549 570.96C566.549 573.563 566.528 574.885 566.485 574.928H558.613V567.056H566.485ZM565.717 582.992V618H559.381V582.992H565.717ZM629.296 606.288C629.296 613.84 629.211 617.68 629.04 617.808C628.869 617.936 620.549 618 604.08 618C587.611 618 579.291 617.936 579.12 617.808C578.949 617.68 578.864 611.899 578.864 600.464C578.864 589.072 578.949 583.312 579.12 583.184C579.291 583.056 587.611 582.992 604.08 582.992C620.549 582.992 628.869 583.056 629.04 583.184C629.211 583.312 629.296 587.152 629.296 594.704H622.96C622.96 590.864 622.896 588.923 622.768 588.88C622.64 588.795 616.411 588.752 604.08 588.752C591.749 588.752 585.52 588.795 585.392 588.88C585.264 588.965 585.2 592.827 585.2 600.464C585.2 608.144 585.264 612.027 585.392 612.112C585.52 612.197 591.749 612.24 604.08 612.24C616.411 612.24 622.64 612.197 622.768 612.112C622.896 612.027 622.96 610.085 622.96 606.288H629.296ZM674.76 617.936C672.029 617.979 666.717 618 658.824 618C644.232 618 636.872 617.957 636.744 617.872C636.616 617.787 636.552 614.181 636.552 607.056C636.552 599.931 636.616 596.325 636.744 596.24C636.872 596.155 644.232 596.112 658.824 596.112L674.76 596.176V596.112C674.76 591.291 674.696 588.859 674.568 588.816C674.482 588.773 669.234 588.752 658.824 588.752C648.37 588.752 643.101 588.773 643.016 588.816C642.93 588.901 642.888 589.712 642.888 591.248H636.552C636.552 585.872 636.616 583.163 636.744 583.12C636.872 583.035 644.232 582.992 658.824 582.992C673.373 582.992 680.712 583.035 680.84 583.12C681.01 583.248 681.096 587.579 681.096 596.112V618H674.76V617.936ZM658.824 601.872C648.37 601.872 643.101 601.893 643.016 601.936C642.93 601.979 642.888 603.685 642.888 607.056C642.888 610.427 642.93 612.133 643.016 612.176C643.101 612.219 648.37 612.24 658.824 612.24C669.234 612.24 674.482 612.219 674.568 612.176C674.696 612.091 674.76 610.384 674.76 607.056C674.76 603.685 674.696 601.979 674.568 601.936C674.482 601.893 669.234 601.872 658.824 601.872ZM701.306 582.992V570H707.706V582.992H719.866V588.752H707.706V618H701.306V588.752H689.146V582.992H701.306ZM736.11 567.056C736.153 567.099 736.174 568.4 736.174 570.96C736.174 573.563 736.153 574.885 736.11 574.928H728.238V567.056H736.11ZM735.342 582.992V618H729.006V582.992H735.342ZM773.705 582.992C790.174 582.992 798.494 583.056 798.665 583.184C798.836 583.312 798.921 589.072 798.921 600.464C798.921 611.899 798.836 617.68 798.665 617.808C798.494 617.936 790.174 618 773.705 618C757.236 618 748.916 617.936 748.745 617.808C748.574 617.68 748.489 611.899 748.489 600.464C748.489 589.072 748.574 583.312 748.745 583.184C748.916 583.056 757.236 582.992 773.705 582.992ZM773.705 588.752C761.374 588.752 755.145 588.795 755.017 588.88C754.889 588.965 754.825 592.827 754.825 600.464C754.825 608.144 754.889 612.027 755.017 612.112C755.145 612.197 761.374 612.24 773.705 612.24C786.036 612.24 792.265 612.197 792.393 612.112C792.521 612.027 792.585 608.144 792.585 600.464C792.585 592.827 792.521 588.965 792.393 588.88C792.265 588.795 786.036 588.752 773.705 588.752ZM817.317 582.992V583.056C820.303 583.013 826.447 582.992 835.749 582.992C847.909 582.992 854.053 583.035 854.181 583.12C854.309 583.205 854.373 588.005 854.373 597.52V618H848.037V597.52C848.037 591.76 847.994 588.859 847.909 588.816C847.823 588.773 843.77 588.752 835.749 588.752C823.717 588.752 817.637 588.773 817.509 588.816C817.381 588.859 817.317 591.76 817.317 597.52V618H810.981V582.992H817.317Z" fill="white"/>
<path d="M165 544V382H183L237 436V436.281L246 445L309 382H327V544H300V427L246 481L192 427V544H165Z" fill="white"/>
<path d="M165 544H160V549H165V544ZM165 382V377H160V382H165ZM183 382L186.536 378.464L185.071 377H183V382ZM237 436H242V433.929L240.536 432.464L237 436ZM237 436.281H232V438.399L233.521 439.872L237 436.281ZM246 445L242.521 448.591L246.056 452.015L249.536 448.536L246 445ZM309 382V377H306.929L305.464 378.464L309 382ZM327 382H332V377H327V382ZM327 544V549H332V544H327ZM300 544H295V549H300V544ZM300 427H305V414.929L296.464 423.464L300 427ZM246 481L242.464 484.536L246 488.071L249.536 484.536L246 481ZM192 427L195.536 423.464L187 414.929V427H192ZM192 544V549H197V544H192ZM170 544V382H160V544H170ZM165 387H183V377H165V387ZM179.464 385.536L233.464 439.536L240.536 432.464L186.536 378.464L179.464 385.536ZM232 436V436.281H242V436H232ZM233.521 439.872L242.521 448.591L249.479 441.409L240.479 432.69L233.521 439.872ZM249.536 448.536L312.536 385.536L305.464 378.464L242.464 441.464L249.536 448.536ZM309 387H327V377H309V387ZM322 382V544H332V382H322ZM327 539H300V549H327V539ZM305 544V427H295V544H305ZM296.464 423.464L242.464 477.464L249.536 484.536L303.536 430.536L296.464 423.464ZM249.536 477.464L195.536 423.464L188.464 430.536L242.464 484.536L249.536 477.464ZM187 427V544H197V427H187ZM192 539H165V549H192V539Z" fill="black"/>
<path d="M653 544V382H671L725 436V436.281L734 445L797 382H815V544H788V427L734 481L680 427V544H653Z" fill="white"/>
<path d="M653 544H648V549H653V544ZM653 382V377H648V382H653ZM671 382L674.536 378.464L673.071 377H671V382ZM725 436H730V433.929L728.536 432.464L725 436ZM725 436.281H720V438.399L721.521 439.872L725 436.281ZM734 445L730.521 448.591L734.056 452.015L737.536 448.536L734 445ZM797 382V377H794.929L793.464 378.464L797 382ZM815 382H820V377H815V382ZM815 544V549H820V544H815ZM788 544H783V549H788V544ZM788 427H793V414.929L784.464 423.464L788 427ZM734 481L730.464 484.536L734 488.071L737.536 484.536L734 481ZM680 427L683.536 423.464L675 414.929V427H680ZM680 544V549H685V544H680ZM658 544V382H648V544H658ZM653 387H671V377H653V387ZM667.464 385.536L721.464 439.536L728.536 432.464L674.536 378.464L667.464 385.536ZM720 436V436.281H730V436H720ZM721.521 439.872L730.521 448.591L737.479 441.409L728.479 432.69L721.521 439.872ZM737.536 448.536L800.536 385.536L793.464 378.464L730.464 441.464L737.536 448.536ZM797 387H815V377H797V387ZM810 382V544H820V382H810ZM815 539H788V549H815V539ZM793 544V427H783V544H793ZM784.464 423.464L730.464 477.464L737.536 484.536L791.536 430.536L784.464 423.464ZM737.536 477.464L683.536 423.464L676.464 430.536L730.464 484.536L737.536 477.464ZM675 427V544H685V427H675ZM680 539H653V549H680V539Z" fill="black"/>
<path d="M565.5 462.5H659.25M419.25 425.5H321.75M423 499.5H321.75" stroke="white" stroke-width="5"/>
<path d="M415.5 388.372H414.5V389.372V537.372V538.372H415.5H492.286C535.089 538.372 568.286 504.628 568.286 463.372C568.286 422.116 535.089 388.372 492.286 388.372H415.5ZM427.214 400.943H492.286C528.302 400.943 553.786 428.728 553.786 463.372C553.786 497.977 526.553 525.8 490.5 525.8H427.214V400.943Z" fill="white" stroke="white" stroke-width="2"/>
</svg>
