<svg width="740" height="272" viewBox="0 0 740 272" fill="none" xmlns="http://www.w3.org/2000/svg">
<path d="M42.304 205.36C66.1547 205.36 78.208 205.445 78.464 205.616C78.6773 205.787 78.784 210.736 78.784 220.464L72.448 220.528C72.448 214.512 72.3627 211.44 72.192 211.312C71.9787 211.184 61.952 211.12 42.112 211.12C22.272 211.12 12.2453 211.184 12.032 211.312C11.8187 211.44 11.712 217.563 11.712 229.68C11.712 241.797 11.8187 247.92 12.032 248.048C12.2453 248.176 22.272 248.24 42.112 248.24C61.952 248.24 71.9787 248.176 72.192 248.048C72.3627 247.92 72.448 244.848 72.448 238.832L78.784 238.896C78.784 248.624 78.6773 253.573 78.464 253.744C78.208 253.915 66.0907 254 42.112 254C18.1333 254 6.016 253.915 5.76 253.744C5.504 253.573 5.376 245.552 5.376 229.68C5.376 213.808 5.504 205.787 5.76 205.616C6.016 205.445 18.0693 205.36 41.92 205.36H42.304ZM111.268 218.992C127.737 218.992 136.057 219.056 136.228 219.184C136.398 219.312 136.484 225.072 136.484 236.464C136.484 247.899 136.398 253.68 136.228 253.808C136.057 253.936 127.737 254 111.268 254C94.7982 254 86.4782 253.936 86.3075 253.808C86.1368 253.68 86.0515 247.899 86.0515 236.464C86.0515 225.072 86.1368 219.312 86.3075 219.184C86.4782 219.056 94.7982 218.992 111.268 218.992ZM111.268 224.752C98.9368 224.752 92.7075 224.795 92.5795 224.88C92.4515 224.965 92.3875 228.827 92.3875 236.464C92.3875 244.144 92.4515 248.027 92.5795 248.112C92.7075 248.197 98.9368 248.24 111.268 248.24C123.598 248.24 129.828 248.197 129.956 248.112C130.084 248.027 130.148 244.144 130.148 236.464C130.148 228.827 130.084 224.965 129.956 224.88C129.828 224.795 123.598 224.752 111.268 224.752ZM154.879 218.992V219.056C157.652 219.013 163.092 218.992 171.199 218.992L186.943 219.056C189.29 219.013 195.22 218.992 204.735 218.992C215.999 218.992 221.695 219.035 221.823 219.12C221.951 219.205 222.015 224.005 222.015 233.52V254H215.679V233.52C215.679 227.76 215.636 224.859 215.551 224.816C215.466 224.773 211.86 224.752 204.735 224.752C194.111 224.752 188.735 224.773 188.607 224.816C188.479 224.859 188.415 227.76 188.415 233.52V254H182.079V228.016C182.079 225.883 182.058 224.816 182.015 224.816C181.93 224.773 178.324 224.752 171.199 224.752C160.532 224.752 155.135 224.773 155.007 224.816C154.922 224.859 154.879 226.288 154.879 229.104V254H148.543V218.992H154.879ZM242.129 218.992V219.056C244.902 219.013 250.342 218.992 258.449 218.992L274.193 219.056C276.54 219.013 282.47 218.992 291.985 218.992C303.249 218.992 308.945 219.035 309.073 219.12C309.201 219.205 309.265 224.005 309.265 233.52V254H302.929V233.52C302.929 227.76 302.886 224.859 302.801 224.816C302.716 224.773 299.11 224.752 291.985 224.752C281.361 224.752 275.985 224.773 275.857 224.816C275.729 224.859 275.665 227.76 275.665 233.52V254H269.329V228.016C269.329 225.883 269.308 224.816 269.265 224.816C269.18 224.773 265.574 224.752 258.449 224.752C247.782 224.752 242.385 224.773 242.257 224.816C242.172 224.859 242.129 226.288 242.129 229.104V254H235.793V218.992H242.129ZM359.587 254V253.936C356.942 253.979 351.822 254 344.227 254C330.019 254 322.851 253.957 322.723 253.872C322.595 253.787 322.531 248.987 322.531 239.472V218.992H328.867V239.472C328.867 245.232 328.91 248.133 328.995 248.176C329.08 248.219 334.158 248.24 344.227 248.24C354.254 248.24 359.31 248.219 359.395 248.176C359.523 248.091 359.587 245.189 359.587 239.472V218.992H365.923V254H359.587ZM386.504 218.992V219.056C389.491 219.013 395.635 218.992 404.936 218.992C417.096 218.992 423.24 219.035 423.368 219.12C423.496 219.205 423.56 224.005 423.56 233.52V254H417.224V233.52C417.224 227.76 417.181 224.859 417.096 224.816C417.011 224.773 412.957 224.752 404.936 224.752C392.904 224.752 386.824 224.773 386.696 224.816C386.568 224.859 386.504 227.76 386.504 233.52V254H380.168V218.992H386.504ZM445.485 203.056C445.528 203.099 445.549 204.4 445.549 206.96C445.549 209.563 445.528 210.885 445.485 210.928H437.613V203.056H445.485ZM444.717 218.992V254H438.381V218.992H444.717ZM508.296 242.288C508.296 249.84 508.211 253.68 508.04 253.808C507.869 253.936 499.549 254 483.08 254C466.611 254 458.291 253.936 458.12 253.808C457.949 253.68 457.864 247.899 457.864 236.464C457.864 225.072 457.949 219.312 458.12 219.184C458.291 219.056 466.611 218.992 483.08 218.992C499.549 218.992 507.869 219.056 508.04 219.184C508.211 219.312 508.296 223.152 508.296 230.704H501.96C501.96 226.864 501.896 224.923 501.768 224.88C501.64 224.795 495.411 224.752 483.08 224.752C470.749 224.752 464.52 224.795 464.392 224.88C464.264 224.965 464.2 228.827 464.2 236.464C464.2 244.144 464.264 248.027 464.392 248.112C464.52 248.197 470.749 248.24 483.08 248.24C495.411 248.24 501.64 248.197 501.768 248.112C501.896 248.027 501.96 246.085 501.96 242.288H508.296ZM553.76 253.936C551.029 253.979 545.717 254 537.824 254C523.232 254 515.872 253.957 515.744 253.872C515.616 253.787 515.552 250.181 515.552 243.056C515.552 235.931 515.616 232.325 515.744 232.24C515.872 232.155 523.232 232.112 537.824 232.112L553.76 232.176V232.112C553.76 227.291 553.696 224.859 553.568 224.816C553.482 224.773 548.234 224.752 537.824 224.752C527.37 224.752 522.101 224.773 522.016 224.816C521.93 224.901 521.888 225.712 521.888 227.248H515.552C515.552 221.872 515.616 219.163 515.744 219.12C515.872 219.035 523.232 218.992 537.824 218.992C552.373 218.992 559.712 219.035 559.84 219.12C560.01 219.248 560.096 223.579 560.096 232.112V254H553.76V253.936ZM537.824 237.872C527.37 237.872 522.101 237.893 522.016 237.936C521.93 237.979 521.888 239.685 521.888 243.056C521.888 246.427 521.93 248.133 522.016 248.176C522.101 248.219 527.37 248.24 537.824 248.24C548.234 248.24 553.482 248.219 553.568 248.176C553.696 248.091 553.76 246.384 553.76 243.056C553.76 239.685 553.696 237.979 553.568 237.936C553.482 237.893 548.234 237.872 537.824 237.872ZM580.306 218.992V206H586.706V218.992H598.866V224.752H586.706V254H580.306V224.752H568.146V218.992H580.306ZM615.11 203.056C615.153 203.099 615.174 204.4 615.174 206.96C615.174 209.563 615.153 210.885 615.11 210.928H607.238V203.056H615.11ZM614.342 218.992V254H608.006V218.992H614.342ZM652.705 218.992C669.174 218.992 677.494 219.056 677.665 219.184C677.836 219.312 677.921 225.072 677.921 236.464C677.921 247.899 677.836 253.68 677.665 253.808C677.494 253.936 669.174 254 652.705 254C636.236 254 627.916 253.936 627.745 253.808C627.574 253.68 627.489 247.899 627.489 236.464C627.489 225.072 627.574 219.312 627.745 219.184C627.916 219.056 636.236 218.992 652.705 218.992ZM652.705 224.752C640.374 224.752 634.145 224.795 634.017 224.88C633.889 224.965 633.825 228.827 633.825 236.464C633.825 244.144 633.889 248.027 634.017 248.112C634.145 248.197 640.374 248.24 652.705 248.24C665.036 248.24 671.265 248.197 671.393 248.112C671.521 248.027 671.585 244.144 671.585 236.464C671.585 228.827 671.521 224.965 671.393 224.88C671.265 224.795 665.036 224.752 652.705 224.752ZM696.317 218.992V219.056C699.303 219.013 705.447 218.992 714.749 218.992C726.909 218.992 733.053 219.035 733.181 219.12C733.309 219.205 733.373 224.005 733.373 233.52V254H727.037V233.52C727.037 227.76 726.994 224.859 726.909 224.816C726.823 224.773 722.77 224.752 714.749 224.752C702.717 224.752 696.637 224.773 696.509 224.816C696.381 224.859 696.317 227.76 696.317 233.52V254H689.981V218.992H696.317Z" fill="white"/>
<path d="M44 180V18H62L116 72V72.2812L125 81L188 18H206V180H179V63L125 117L71 63V180H44Z" fill="white"/>
<path d="M532 180V18H550L604 72V72.2812L613 81L676 18H694V180H667V63L613 117L559 63V180H532Z" fill="white"/>
<path d="M444.5 98.5H538.25M298.25 61.5H200.75M302 135.5H200.75" stroke="white" stroke-width="7"/>
<path d="M294.5 23.3716H292.5V25.3716V173.372V175.372H294.5H371.286C414.637 175.372 448.286 141.184 448.286 99.3716C448.286 57.5594 414.637 23.3716 371.286 23.3716H294.5ZM307.214 37.943H371.286C406.715 37.943 431.786 65.2457 431.786 99.3716C431.786 133.422 405.004 160.8 369.5 160.8H307.214V37.943Z" fill="white" stroke="white" stroke-width="4"/>
</svg>
